<svg xmlns="http://www.w3.org/2000/svg" height="800" width="600" version="1.1" xmlns:xlink="http://www.w3.org/1999/xlink">

    <defs>
        <!-- Moon Phases, Icons by MarkieAnn Packer from the Noun Project -->
        <path id="new-moon" fill="#000000" d="M50,5C25.2,5,5,25.2,5,50s20.2,45,45,45c24.8,0,45-20.2,45-45S74.8,5,50,5z"/>

        <g id="waxing-crescent"><ellipse transform="matrix(0.8648 0.5021 -0.5021 0.8648 20.0843 -32.4108)" fill="#000000" cx="70.2" cy="21.1" rx="4.3" ry="2.9"/><path fill="#000000" d="M79.6,29.9c-0.9-0.9-2.1-1.4-3.4-1.4c-0.7,0-1.3,0.1-1.9,0.4c-1.2,0.5-2.1,1.4-2.6,2.6   c-0.2,0.6-0.4,1.2-0.4,1.9c0,0.7,0.1,1.3,0.4,1.9c0.5,1.2,1.4,2.1,2.6,2.6c0.6,0.2,1.2,0.4,1.9,0.4c1.3,0,2.6-0.5,3.4-1.4   c0.9-0.9,1.4-2.1,1.4-3.4C81,32,80.5,30.8,79.6,29.9z"/><path fill="#000000" d="M73,44.1c-0.3,0-0.6,0.1-0.8,0.2c-0.2,0.1-0.4,0.2-0.6,0.4v0c0.1,1,0.1,2.1,0.1,3.1   c0.1,0.1,0.3,0.2,0.5,0.3c0.2,0.1,0.5,0.2,0.8,0.2c1.1,0,2.1-0.9,2.1-2.1C75.1,45,74.1,44.1,73,44.1z"/><path fill="#000000" d="M78.8,24.3c0.4,0,0.7-0.1,1-0.3c-0.9-1-1.8-1.9-2.8-2.7l0,0c-0.1,0.3-0.2,0.6-0.2,0.9   c0,0.6,0.2,1.1,0.6,1.5C77.8,24.1,78.3,24.3,78.8,24.3z"/><path fill="#000000" d="M57.1,5.6c-0.7-0.1-1.3-0.2-2-0.3c-0.4,0-0.8-0.1-1.1-0.1l0,0l-0.6,0l-0.9-0.1C51.6,5.1,50.8,5,50,5   C25.2,5,5,25.2,5,50c0,24.8,20.2,45,45,45c0.8,0,1.6-0.1,2.5-0.1l0.7,0l0.8-0.1l0,0c0.4,0,0.9-0.1,1.3-0.1c0.6-0.1,1.2-0.2,1.8-0.3   C78.5,91,95,72.4,95,50C95,27.6,78.5,9,57.1,5.6z M60.6,89.4c-1,0.3-2,0.5-3,0.7c-0.2,0-0.4,0.1-0.6,0.1c0.6-0.9,1.1-1.8,1.6-2.7   C65.3,76.1,68.8,63.3,68.8,50c0-5-0.5-9.9-1.5-14.7c-0.5-2.5-1.1-5-1.9-7.5c-1.7-5.3-3.9-10.5-6.8-15.4c-0.5-0.9-1-1.8-1.6-2.6   c0.2,0,0.4,0.1,0.6,0.1c1,0.2,2,0.4,3,0.7C78,15.3,90.8,31.1,90.8,50C90.8,68.9,78,84.7,60.6,89.4z"/></g>

        <g id="first-quarter"><path fill="#000000" d="M74,23.3c0.2-0.3,0.3-0.7,0.3-1.2c0-0.6-0.3-1.3-0.7-1.9c-0.4-0.6-1.1-1.2-1.8-1.6c-1-0.6-2.1-0.9-3.1-0.8   c-0.5,0-0.9,0.1-1.3,0.3c-0.4,0.2-0.7,0.5-0.9,0.8c-0.2,0.3-0.3,0.7-0.3,1.2c0,1.2,1,2.6,2.6,3.5C70.8,24.8,73.2,24.7,74,23.3z"/><path fill="#000000" d="M63.5,27.4c-0.4,0-0.8,0.1-1.2,0.2c-1.2,0.3-2.2,1-2.8,2c-1.6,0.1-3,0.8-4,1.9c-0.2,0.2-0.3,0.5-0.5,0.7   v6.9c0.2,0.3,0.4,0.5,0.6,0.7c0.5,0.5,1.2,1,1.9,1.3c0.1,0,0.2,0,0.2,0.1c0.2-0.7,0.8-1.3,1.6-1.3c0.8,0,1.5,0.6,1.6,1.5   c0.3-0.1,0.7-0.1,1-0.2c1.3-0.5,2.4-1.5,3.1-2.7c0.3-0.6,0.6-1.3,0.7-2c0.4-0.2,0.7-0.5,1-0.8c0.9-0.9,1.5-2.1,1.5-3.5   C68.4,29.6,66.2,27.4,63.5,27.4z"/><path fill="#000000" d="M78,28.9c-0.6-0.2-1.2-0.4-1.9-0.4s-1.3,0.1-1.9,0.4c-1.7,0.7-3,2.5-3,4.5c0,1.3,0.5,2.6,1.4,3.4   c0.9,0.9,2.1,1.4,3.4,1.4c1.3,0,2.6-0.5,3.4-1.4c0.9-0.9,1.4-2.1,1.4-3.4C81,31.4,79.8,29.6,78,28.9z"/><path fill="#000000" d="M73,44.1c-0.3,0-0.6,0.1-0.8,0.2c-0.7,0.3-1.3,1.1-1.3,1.9c0,0.9,0.5,1.6,1.3,1.9c0.2,0.1,0.5,0.2,0.8,0.2   c0.6,0,1.1-0.2,1.5-0.6s0.6-0.9,0.6-1.5c0-0.6-0.2-1.1-0.6-1.5C74.1,44.3,73.6,44.1,73,44.1z"/><path fill="#000000" d="M78.8,24.3c0.4,0,0.7-0.1,1-0.3c-0.9-1-1.8-1.9-2.8-2.7c-0.1,0.3-0.2,0.6-0.2,0.9c0,0.6,0.2,1.1,0.6,1.5   C77.8,24.1,78.3,24.3,78.8,24.3z"/><circle fill="#000000" cx="61.2" cy="75.5" r="0.9"/><path fill="#000000" d="M52.1,5.1V5H50C25.2,5,5,25.2,5,50s20.2,45,45,45h2.1v-0.1C75.9,93.8,95,74.1,95,50S75.9,6.2,52.1,5.1z    M55,90.5c-1,0.1-1.9,0.2-2.9,0.2v-2.6V73v-9.4V33v0v-7.8V11.8V9.3c1,0,2,0.1,2.9,0.2C75.2,12,90.8,29.2,90.8,50S75.2,88,55,90.5z"/></g>

        <g id="waxing-gibbous"><ellipse transform="matrix(0.8648 0.5021 -0.5021 0.8648 20.0837 -32.4118)" fill="#000000" cx="70.2" cy="21.1" rx="4.3" ry="2.9"/><path fill="#000000" d="M42.5,30.3L42.5,30.3C42.5,30.3,42.5,30.3,42.5,30.3c-0.1,1.9,0.7,3.6,2.1,4.4c0.4,0.3,0.9,0.4,1.4,0.5   c1.4,0.2,3-0.3,4.3-1.5c1-0.2,2-0.7,2.6-1.5c0.7-0.8,1.1-1.8,1.1-2.9c0-1.3-0.6-2.5-1.5-3.3c-0.2-0.4-0.4-0.8-0.7-1.2   c-0.3-0.3-0.6-0.6-1-0.9c-0.5-0.3-1-0.4-1.6-0.5c-1.6-0.2-3.4,0.6-4.8,2.1c-0.3-0.3-0.6-0.5-0.9-0.6c-0.3-0.1-0.7-0.2-1.1-0.2   c-0.3,0-0.6,0.1-0.9,0.2c-0.5,1.3-1,2.7-1.4,4c0.2,0.4,0.6,0.7,1,1C41.6,30.2,42,30.3,42.5,30.3z"/><path fill="#000000" d="M63.5,27.4c-0.4,0-0.8,0.1-1.2,0.2c-1.2,0.3-2.2,1-2.8,2c-1.6,0.1-3,0.8-4,1.9c-1,1.1-1.6,2.5-1.6,4.1   c0,0.4,0,0.8,0.1,1.2c0.2,0.8,0.5,1.5,0.9,2.2c0.2,0.3,0.5,0.6,0.7,0.9c0.5,0.5,1.2,1,1.9,1.3c0.1,0,0.2,0,0.2,0.1   c0.2-0.7,0.8-1.3,1.6-1.3c0.8,0,1.5,0.6,1.6,1.5c2.5-0.5,4.5-2.4,4.8-4.9c1.5-0.8,2.5-2.4,2.5-4.2C68.4,29.6,66.2,27.4,63.5,27.4z"/><path fill="#000000" d="M80,30.6c-0.5-0.7-1.1-1.3-2-1.7c-0.6-0.2-1.2-0.4-1.9-0.4c-0.7,0-1.3,0.1-1.9,0.4   c-1.2,0.5-2.1,1.4-2.6,2.6c-0.2,0.6-0.4,1.2-0.4,1.9c0,0.7,0.1,1.3,0.4,1.9c0.3,0.8,1,1.4,1.7,2c0.8,0.6,1.7,1,2.8,1   c1.3,0,2.6-0.5,3.4-1.4c0.9-0.9,1.4-2.1,1.4-3.4C81,32.3,80.6,31.4,80,30.6z"/><path fill="#000000" d="M73,44.1c-0.3,0-0.6,0.1-0.8,0.2c-0.7,0.3-1.3,1.1-1.3,1.9c0,0.9,0.5,1.6,1.3,1.9c0.2,0.1,0.5,0.2,0.8,0.2   c0.6,0,1.1-0.2,1.5-0.6c0.4-0.4,0.6-0.9,0.6-1.5c0-0.6-0.2-1.1-0.6-1.5C74.1,44.3,73.6,44.1,73,44.1z"/><path fill="#000000" d="M78.8,24.3c0.4,0,0.7-0.1,1-0.3c-0.9-1-1.8-1.9-2.8-2.7l0,0c-0.1,0.3-0.2,0.6-0.2,0.9   c0,0.6,0.2,1.1,0.6,1.5C77.8,24.1,78.3,24.3,78.8,24.3z"/><circle fill="#000000" cx="61.2" cy="75.5" r="0.9"/><path fill="#000000" d="M43.3,41c0,0.5,0.3,1,0.8,1.4c0.5,0.4,1.1,0.6,1.8,0.6s1.4-0.2,1.8-0.6c0.5-0.4,0.8-0.9,0.8-1.4   c0-0.3-0.1-0.5-0.2-0.8c-0.4-0.7-1.3-1.2-2.4-1.2C44.5,39.1,43.3,39.9,43.3,41z"/><path fill="#000000" d="M52.8,64c-0.9-0.6-2-1-3.2-1h0c-0.8,0-1.5,0.2-2.2,0.4c-0.7,0.3-1.3,0.7-1.8,1.2c-1,1-1.7,2.4-1.7,4   s0.6,2.7,1.7,3.5c0.5,0.4,1.1,0.7,1.8,0.9c0.7,0.2,1.4,0.3,2.2,0.3h0c1.2,0,2.3-0.2,3.2-0.7c1.5-0.7,2.5-2.1,2.5-4   C55.3,66.7,54.3,65,52.8,64z"/><path fill="#000000" d="M41.6,62.2c-0.4-0.2-0.8-0.2-1.2-0.2c-0.9,0-1.6,0.4-2.2,0.9c0.3,1.7,0.7,3.4,1.1,5.1v0   c0.3,0.1,0.7,0.3,1,0.3c0.4,0,0.8-0.1,1.2-0.2c1.1-0.5,1.9-1.6,1.9-2.9c0-0.9-0.4-1.7-0.9-2.2C42.3,62.6,42,62.3,41.6,62.2z"/><path fill="#000000" d="M42.7,52.8c0-3.7-2.3-6.8-5.5-8C37.1,46.5,37,48.3,37,50c0,3.6,0.3,7.1,0.8,10.6c1.1-0.5,2.1-1.3,2.9-2.2   C42,56.9,42.7,54.9,42.7,52.8z"/><path fill="#000000" d="M42.7,77.9c0-0.2,0.1-0.3,0.1-0.5c0-1-0.5-1.8-1.2-2.3C41.9,76,42.3,76.9,42.7,77.9z"/><path fill="#000000" d="M50,5C30.9,5,14.6,17,8.1,33.8C8,33.9,8,34,8,34.1c-0.4,1.1-0.8,2.2-1.2,3.4c-0.1,0.4-0.2,0.8-0.3,1.2   c-0.2,0.9-0.5,1.8-0.7,2.8c-0.1,0.7-0.2,1.4-0.3,2.1c-0.1,0.7-0.2,1.4-0.3,2C5.1,47.1,5,48.5,5,50s0.1,2.9,0.2,4.4   c0.1,0.7,0.2,1.4,0.3,2.1c0.1,0.7,0.2,1.4,0.3,2.1c0.2,1,0.4,1.9,0.7,2.8c0.1,0.4,0.2,0.8,0.3,1.1c0.3,1.2,0.7,2.3,1.2,3.4   C8,66,8,66.1,8.1,66.2C14.6,83,30.9,95,50,95c24.8,0,45-20.2,45-45C95,25.2,74.8,5,50,5z M50,90.8c-0.1,0-0.2,0-0.2,0   c-1,0-2.1-0.1-3.1-0.2c-0.7-1.1-1.4-2.2-2.1-3.3c-0.4-0.7-0.8-1.4-1.2-2.1c-0.9-1.6-1.8-3.3-2.6-5c-0.8-1.8-1.6-3.7-2.3-5.6   c-0.6-1.6-1.1-3.3-1.6-4.9c-1.2-4.2-2-8.5-2.4-12.8c-0.1-1.2-0.2-2.4-0.2-3.6c0-1.1-0.1-2.2-0.1-3.3c0-1.9,0.1-3.9,0.2-5.8   c0.9-11.2,4.4-22,10.3-31.7c0.7-1.1,1.3-2.2,2.1-3.2c1-0.1,2-0.2,3.1-0.2c0.1,0,0.2,0,0.2,0c22.5,0,40.8,18.3,40.8,40.8   C90.8,72.5,72.5,90.8,50,90.8z"/></g>

        <g id="full-moon"><path fill="#000000" d="M50,5C25.2,5,5,25.2,5,50c0,24.8,20.2,45,45,45s45-20.2,45-45C95,25.2,74.8,5,50,5z M50,90.8   C27.5,90.8,9.2,72.5,9.2,50C9.2,27.5,27.5,9.2,50,9.2S90.8,27.5,90.8,50C90.8,72.5,72.5,90.8,50,90.8z"/><path fill="#000000" d="M72.1,23.3c0.4-0.7,0.3-1.6-0.1-2.4c-0.4-0.9-1.2-1.7-2.2-2.3c-2.1-1.2-4.4-1-5.2,0.3   c-0.4,0.7-0.4,1.6,0.1,2.4c0.2,0.4,0.5,0.8,0.9,1.2s0.8,0.7,1.3,1c1,0.6,2.1,0.9,3.1,0.8C70.9,24.4,71.7,24,72.1,23.3z"/><path fill="#000000" d="M38.5,29.3c0.5,0.6,1.3,1,2.2,1h0c0,0,0,0,0,0c-0.1,1.9,0.7,3.6,2.1,4.4c0.4,0.3,0.9,0.4,1.4,0.5   c1.4,0.2,3-0.3,4.3-1.5c1-0.2,2-0.7,2.6-1.5c0.7-0.8,1.1-1.8,1.1-2.9c0-1.3-0.6-2.5-1.5-3.3c-0.2-0.4-0.4-0.8-0.7-1.2   c-0.3-0.3-0.6-0.6-1-0.9c-0.5-0.3-1-0.4-1.6-0.5c-0.5-0.1-1.1,0-1.7,0.1c-1.1,0.3-2.2,1-3.1,2c-0.3-0.3-0.6-0.5-0.9-0.6   c-0.3-0.1-0.7-0.2-1.1-0.2c-1.2,0-2.1,0.7-2.6,1.7c-0.1,0.3-0.2,0.7-0.2,1.1c0,0.4,0.1,0.8,0.2,1.1C38.2,28.9,38.3,29.1,38.5,29.3z   "/><path fill="#000000" d="M61.7,27.4c-0.4,0-0.8,0.1-1.2,0.2c-0.8,0.2-1.5,0.6-2.1,1.1c-0.3,0.3-0.5,0.6-0.8,0.9   c-3.1,0.2-5.6,2.8-5.6,6c0,2.5,1.5,4.6,3.7,5.6c0.1,0,0.2,0,0.2,0.1c0.2-0.7,0.8-1.3,1.6-1.3c0.8,0,1.5,0.6,1.6,1.5   c2.5-0.5,4.5-2.4,4.8-4.9c1.5-0.8,2.5-2.4,2.5-4.2c0-1.3-0.5-2.6-1.4-3.4C64.2,28,63,27.4,61.7,27.4z"/><path fill="#000000" d="M78.1,30.6c-0.5-0.7-1.1-1.3-2-1.7c-0.6-0.2-1.2-0.4-1.9-0.4c-0.7,0-1.3,0.1-1.9,0.4   c-1.2,0.5-2.1,1.4-2.6,2.6c-0.2,0.6-0.4,1.2-0.4,1.9c0,0.7,0.1,1.3,0.4,1.9c0.5,1.2,1.4,2.1,2.6,2.6c0.6,0.2,1.2,0.4,1.9,0.4   c1.3,0,2.6-0.5,3.4-1.4c0.9-0.9,1.4-2.1,1.4-3.4C79.1,32.3,78.7,31.4,78.1,30.6z"/><path fill="#000000" d="M71.1,44.1c-0.3,0-0.6,0.1-0.8,0.2c-0.7,0.3-1.3,1.1-1.3,1.9s0.5,1.6,1.3,1.9c0.2,0.1,0.5,0.2,0.8,0.2   c1.1,0,2.1-0.9,2.1-2.1C73.2,45,72.3,44.1,71.1,44.1z"/><circle fill="#000000" cx="28.5" cy="22.8" r="2.1"/><path fill="#000000" d="M77,24.3c0.4,0,0.7-0.1,1-0.3c-0.9-1-1.8-1.9-2.8-2.7l0,0c-0.1,0.3-0.2,0.6-0.2,0.9c0,0.6,0.2,1.1,0.6,1.5   C75.9,24.1,76.4,24.3,77,24.3z"/><circle fill="#000000" cx="59.3" cy="75.5" r="0.9"/><path fill="#000000" d="M42.2,39.6c-0.5,0.4-0.8,0.9-0.8,1.4c0,0.5,0.3,1,0.8,1.4c0.5,0.4,1.1,0.6,1.8,0.6c0.7,0,1.4-0.2,1.8-0.6   c0.5-0.4,0.8-0.9,0.8-1.4c0-0.5-0.3-1-0.8-1.4c-0.5-0.4-1.1-0.6-1.8-0.6C43.3,39.1,42.7,39.3,42.2,39.6z"/><path fill="#000000" d="M47.7,63L47.7,63c-3.1,0-5.7,2.5-5.7,5.7c0,3.1,2.5,4.7,5.7,4.7h0c2,0,3.7-0.6,4.7-1.8c0.6-0.7,1-1.7,1-2.9   c0-1.2-0.4-2.3-1-3.2C51.4,64,49.7,63,47.7,63z"/><path fill="#000000" d="M36.1,67c0.6,0.7,1.5,1.2,2.5,1.2c0.4,0,0.8-0.1,1.2-0.2c1.1-0.5,1.9-1.6,1.9-2.9c0-0.9-0.4-1.7-0.9-2.2   c-0.3-0.3-0.6-0.5-1-0.7c-0.4-0.2-0.8-0.2-1.2-0.2c-1.3,0-2.4,0.8-2.9,1.9c-0.2-0.5-0.5-0.9-0.8-1.4c-0.3-0.4-0.7-0.8-1-1.1   c0,0,0,0,0,0c4-0.7,7-4.3,7-8.5c0-4.8-3.9-8.6-8.6-8.6c-0.5,0-1,0-1.5,0.1c-0.5,0.1-0.9,0.2-1.4,0.4c0.9-0.9,1.6-2.1,1.9-3.5   c0.1-0.5,0.1-0.9,0.1-1.4c0-0.3,0-0.6-0.1-1c0.6-0.6,1-1.2,1.4-2c0.3-0.8,0.5-1.6,0.5-2.5c0-3.4-2.8-6.2-6.2-6.2   c-0.4,0-0.8,0-1.2,0.1c-0.8,0.2-1.5,0.4-2.1,0.9c-0.6,0.4-1.2,0.9-1.7,1.5c-0.3,0.4-0.6,0.9-0.8,1.4c-0.2,0.5-0.3,1-0.4,1.6h0   c1.3,0.2,2.3,1.2,2.3,2.6c0,1.5-1.2,2.6-2.6,2.6c-1.1,0-2.1-0.7-2.5-1.7c-0.3,0.8-0.6,1.7-0.6,2.6c0,1.4,0.4,2.7,1.1,3.7   c-0.6,0.6-1.3,0.6-1.9,0.2c-0.4-0.3-0.8-0.7-1.2-1.1c-0.2-0.2-0.3-0.5-0.5-0.7c-0.3-0.5-0.6-0.9-0.7-1.3c-0.4-0.8-0.5-1.8-0.7-2.3   c-1,3.2-1.7,6.6-1.8,10.1c0,0.5,0,1,0,1.6c0,0.5,0,0.9,0,1.4c1.6-0.5,3.4,0.9,4.1,3c0.7,2.2,0,4.3-1.6,4.8c-0.4,0.1-0.9,0.1-1.3,0   c0,0.2,0.1,0.3,0.1,0.5c0.9,3.2,2.2,6.3,3.8,9.1c0.1-0.2,0.1-0.5,0.3-0.6c0.6-0.4,1.5-0.2,2,0.6c0.5,0.7,0.5,1.7,0,2.1c0,0,0,0,0,0   c0,0,0,0,0,0c0.3,0.2,0.6,0.4,0.9,0.6c1,0.5,2,0.9,3,1c0.5,0.1,1,0.1,1.4,0c-0.5,0.3-0.8,0.9-0.8,1.5c0,1,0.8,1.8,1.8,1.8   c1,0,1.8-0.8,1.8-1.8c0-0.8-0.5-1.4-1.2-1.7c0.4-0.1,0.7-0.1,1.1-0.3c0.4,0.2,0.8,0.3,1.2,0.4c0.4,0.1,0.9,0.1,1.3,0.1   C33,72.6,35.7,70.2,36.1,67L36.1,67z M25.4,63.4c-0.9,0-1.7-0.7-1.7-1.7c0-0.9,0.7-1.7,1.7-1.7c0.9,0,1.7,0.7,1.7,1.7   C27,62.7,26.3,63.4,25.4,63.4z M30.8,57.6c-1.4,0-2.5-1.1-2.5-2.5c0-0.2,0.1-0.4,0.1-0.6c-0.4,0.3-0.8,0.6-1.3,0.7   c-1.9,0.6-4-0.4-4.5-2.1c-0.3-0.9-0.1-1.7,0.3-2.5c-0.3,0-0.6,0-0.9,0c-0.6-1.4-1.6-2.6-3-3.4l2.2-1.4h0c0.5,0.2,1,0.4,1.5,0.6   c0.5,0.1,1.1,0.2,1.7,0.2c0.7,0,1.3-0.1,2-0.3c-0.9,0.8-1.5,1.8-2,2.9h0c0.2-0.1,0.5-0.3,0.7-0.4c1.9-0.6,4,0.4,4.5,2.1   c0.2,0.7,0.1,1.4-0.2,2.1c0.4-0.2,0.8-0.4,1.3-0.4c1.4,0,2.5,1.1,2.5,2.5C33.3,56.5,32.2,57.6,30.8,57.6z"/><path fill="#000000" d="M40.9,77.4c0-1.3-0.8-2.3-1.8-2.8c-0.4-0.2-0.8-0.2-1.2-0.2c-1.7,0-3.3,1.4-3,3c0.2,1.2,1.8,1.4,3,2.5   c0.2,0.1,0.3,0.2,0.5,0.3c0.2,0,0.3,0.1,0.5,0c0.2,0,0.3-0.1,0.5-0.2c0.2-0.1,0.3-0.2,0.5-0.3C40.4,79.1,40.9,78.2,40.9,77.4z"/><path fill="#000000" d="M44.4,86.1c-0.5-0.6-1.2-1-2-1c-0.4,0-0.8,0-1.2,0.1c-0.4,0.1-0.7,0.3-1,0.6c-0.3,0.2-0.6,0.5-0.8,0.9   c1.8,0.5,3.8,0.9,5.7,1.2c0-0.2-0.1-0.4-0.1-0.7C44.8,86.8,44.6,86.4,44.4,86.1z"/></g>

        <g id="waning-gibbous"><path fill="#000000" d="M40.6,30.3C40.6,30.3,40.6,30.3,40.6,30.3c0,0.5,0,0.9,0.1,1.4c0.2,1.3,0.9,2.4,2,3c1.7,1,4,0.5,5.7-1   c1-0.2,2-0.7,2.6-1.5c0.7-0.8,1.1-1.8,1.1-2.9c0-0.7-0.1-1.3-0.4-1.8c-0.3-0.6-0.6-1.1-1.1-1.5c-0.2-0.4-0.4-0.8-0.7-1.2   c-0.3-0.3-0.6-0.6-1-0.9c-1.9-1.1-4.5-0.4-6.3,1.6c-0.5-0.5-1.2-0.9-2-0.9c-1.5,0-2.8,1.2-2.8,2.8C37.8,29,39,30.3,40.6,30.3z"/><path fill="#000000" d="M58.3,28.7c-0.3,0.3-0.5,0.6-0.8,0.9c-0.8,0.1-1.5,0.3-2.2,0.6c-2,1-3.4,3-3.4,5.4c0,0.8,0.2,1.6,0.5,2.3   c0.5,1.1,1.2,2,2.2,2.7c0.4,0.3,0.8,0.5,1.3,0.6v0c0.2-0.7,0.8-1.3,1.6-1.3c0.8,0,1.5,0.6,1.6,1.5v0c1.1-0.2,2.1-0.6,2.8-1.3   c0.1-0.1,0.1-0.2,0.2-0.3c-0.6-4.1-1.5-8.1-2.7-12C59,28.2,58.6,28.4,58.3,28.7z"/><circle fill="#000000" cx="28.5" cy="22.8" r="2.1"/><ellipse fill="#000000" cx="44" cy="41" rx="2.6" ry="2"/><path fill="#000000" d="M47.6,63c-3.1,0-5.7,2.5-5.7,5.7c0,3.1,2.5,4.7,5.7,4.7c3.1,0,5.7-1.5,5.7-4.7C53.3,65.5,50.8,63,47.6,63z"/><path fill="#000000" d="M37.1,67.9c0.4,0.2,0.9,0.3,1.4,0.3c0.4,0,0.8-0.1,1.2-0.2c0.4-0.2,0.7-0.4,1-0.7c0.6-0.6,0.9-1.4,0.9-2.2   c0-1.7-1.4-3.2-3.2-3.2c-0.7,0-1.3,0.2-1.8,0.5c-0.5,0.3-0.9,0.8-1.1,1.4c-0.2-0.5-0.5-0.9-0.8-1.4c-0.3-0.4-0.7-0.8-1-1.1   c0,0,0,0,0,0c4-0.7,7-4.3,7-8.5c0-4.8-3.9-8.6-8.6-8.6c-0.5,0-1,0-1.5,0.1c-0.5,0.1-0.9,0.2-1.4,0.4l0,0c0.5-0.5,0.9-1,1.2-1.6   c0.3-0.6,0.6-1.2,0.7-1.9c0.1-0.5,0.1-0.9,0.1-1.4c0-0.3,0-0.6-0.1-1c1.2-1.1,1.9-2.7,1.9-4.4c0-3.4-2.8-6.2-6.2-6.2   c-2,0-3.9,1-5,2.5c-0.6,0.8-1,1.9-1.2,3c1.3,0.2,2.3,1.2,2.3,2.6c0,1.5-1.2,2.6-2.6,2.6c-1.1,0-2.1-0.7-2.5-1.7   c-0.3,0.8-0.6,1.7-0.6,2.6c0,1.4,0.4,2.7,1.1,3.7C17,45.1,15,42,14.3,40.6c-0.4-0.8-0.5-1.8-0.7-2.3c-1,3.2-1.7,6.6-1.8,10.1   c0,0.5,0,1,0,1.6c0,0.5,0,0.9,0,1.4c1.6-0.5,3.4,0.9,4.1,3c0.7,2.2,0,4.3-1.6,4.8c-0.4,0.1-0.9,0.1-1.3,0c0,0.2,0.1,0.3,0.1,0.5   c0.9,3.2,2.2,6.3,3.8,9.1c0.1-0.2,0.1-0.5,0.3-0.6c0.6-0.4,1.5-0.2,2,0.6c0.5,0.7,0.5,1.7,0,2.1c0,0,0,0,0,0   c0.8,0.5,1.6,0.9,2.4,1.2c0.5,0.2,1,0.3,1.5,0.4c0.5,0.1,1,0.1,1.4,0c-0.5,0.3-0.8,0.9-0.8,1.5c0,1,0.8,1.8,1.8,1.8   s1.8-0.8,1.8-1.8c0-0.8-0.5-1.4-1.2-1.7c0.4-0.1,0.7-0.1,1.1-0.3c0.4,0.2,0.8,0.3,1.2,0.4c0.4,0.1,0.9,0.1,1.3,0.1   c1.6,0,3.1-0.6,4.3-1.6c1.1-1,1.9-2.4,2.1-4C36.3,67.3,36.6,67.6,37.1,67.9z M25.3,63.4c-0.9,0-1.7-0.7-1.7-1.7   c0-0.9,0.7-1.7,1.7-1.7c0.9,0,1.7,0.7,1.7,1.7C26.9,62.6,26.2,63.4,25.3,63.4z M30.7,57.6c-1.4,0-2.5-1.1-2.5-2.5   c0-0.2,0.1-0.4,0.1-0.6c-0.4,0.3-0.8,0.6-1.3,0.7c-1.9,0.6-4-0.4-4.5-2.1c-0.3-0.9-0.1-1.7,0.3-2.5c-0.3,0-0.6,0-0.9,0   c-0.3-0.7-0.7-1.4-1.2-2c-0.5-0.6-1.1-1.1-1.8-1.5l2.2-1.4c1,0.5,2,0.8,3.2,0.8c0.7,0,1.3-0.1,2-0.3c-0.9,0.8-1.5,1.8-2,2.9   c0.2-0.1,0.5-0.3,0.7-0.4c1.9-0.6,4,0.4,4.5,2.1c0.2,0.7,0.1,1.4-0.2,2.1c0.4-0.2,0.8-0.4,1.3-0.4c1.4,0,2.5,1.1,2.5,2.5   C33.2,56.5,32.1,57.6,30.7,57.6z"/><path fill="#000000" d="M40.8,77.4c0-1.7-1.4-3-3-3c-1.7,0-3.3,1.4-3,3c0.2,1.2,1.8,1.4,3,2.5C39,81,40.8,79,40.8,77.4z"/><path fill="#000000" d="M44.3,86.1c-0.8-0.9-2-1.3-3.2-0.9c-0.7,0.2-1.4,0.8-1.8,1.4c1.8,0.5,3.8,0.9,5.7,1.2   c0-0.2-0.1-0.4-0.1-0.7C44.8,86.8,44.6,86.4,44.3,86.1z"/><path fill="#000000" d="M94.9,49.4c0-1.3-0.1-2.5-0.2-3.8c-0.1-0.8-0.2-1.5-0.3-2.3c-0.1-0.6-0.2-1.3-0.3-1.9c-0.2-1-0.4-2-0.7-2.9   c-0.1-0.3-0.2-0.7-0.3-1c-0.3-1.2-0.7-2.4-1.2-3.5c0-0.1,0-0.1-0.1-0.2C85.3,16.9,69,5,49.9,5c-24.8,0-45,20.2-45,45   c0,24.8,20.2,45,45,45C69,95,85.3,83,91.9,66.2c0-0.1,0-0.1,0.1-0.2c0.4-1.1,0.8-2.3,1.2-3.5c0.1-0.3,0.2-0.7,0.3-1   c0.3-1,0.5-1.9,0.7-2.9c0.1-0.6,0.2-1.3,0.3-1.9c0.1-0.8,0.2-1.5,0.3-2.3c0.1-1.2,0.2-2.5,0.2-3.8c0-0.2,0-0.4,0-0.6   C94.9,49.8,94.9,49.6,94.9,49.4z M55.1,87.7c-0.6,1-1.2,1.9-1.9,2.9c-1,0.1-2,0.2-3.1,0.2c-0.1,0-0.2,0-0.2,0   C27.4,90.8,9.1,72.5,9.1,50S27.4,9.1,49.9,9.1c0.1,0,0.2,0,0.2,0c1,0,2.1,0.1,3.1,0.2c0.7,0.9,1.2,1.9,1.9,2.9   c3,4.9,5.4,10,7.2,15.4v0c0.9,2.8,1.6,5.7,2.2,8.6v0c0.9,4.5,1.4,9.2,1.4,13.9C65.9,63.4,62.1,76.4,55.1,87.7z"/></g>

        <g id="third-quarter"><path fill="#000000" d="M42.8,25.8c-0.5-0.5-1.2-0.9-2-0.9c-0.9,0-1.6,0.4-2.2,1c-0.2,0.2-0.3,0.4-0.4,0.7   c-0.1,0.3-0.2,0.7-0.2,1.1c0,0.8,0.3,1.5,0.8,2c0.5,0.5,1.2,0.8,2,0.8c0,0,0,0,0,0c-0.1,1.9,0.7,3.6,2.1,4.4   c0.7,0.4,1.4,0.5,2.2,0.5V24.2v0c-0.4,0.2-0.8,0.4-1.2,0.7C43.5,25.1,43.2,25.4,42.8,25.8z"/><circle fill="#000000" cx="28.7" cy="23" r="2.1"/><path fill="#000000" d="M42.4,39.8c-0.2,0.2-0.4,0.4-0.6,0.6c-0.1,0.2-0.2,0.5-0.2,0.8c0,0.3,0.1,0.5,0.2,0.8   c0.4,0.7,1.3,1.2,2.4,1.2c0.3,0,0.6-0.1,0.9-0.1v-3.7v0c-0.3-0.1-0.6-0.1-0.9-0.1C43.5,39.2,42.9,39.4,42.4,39.8z"/><path fill="#000000" d="M42.7,66.6c-0.3,0.7-0.4,1.4-0.4,2.2c0,1.2,0.4,2.1,1,2.9c0.5,0.6,1.2,1,1.9,1.3v-9.1   c-0.1,0.1-0.3,0.1-0.4,0.2C43.8,64.8,43.1,65.6,42.7,66.6z"/><path fill="#000000" d="M36.2,67.2c0.6,0.7,1.5,1.2,2.5,1.2c0.9,0,1.7-0.4,2.2-0.9c0.6-0.6,0.9-1.4,0.9-2.2c0-0.4-0.1-0.8-0.2-1.2   c-0.5-1.1-1.6-1.9-2.9-1.9c-0.7,0-1.3,0.2-1.8,0.6C36.4,63,36,63.5,35.8,64c-0.2-0.5-0.5-0.9-0.8-1.4c-0.3-0.4-0.7-0.8-1-1.1   c0,0,0,0,0,0v0c2-0.4,3.8-1.4,5-2.9c0.6-0.7,1.1-1.6,1.5-2.5c0.3-0.9,0.5-1.9,0.5-3c0-4.8-3.9-8.6-8.6-8.6c-1,0-1.9,0.2-2.8,0.5   c0.9-0.9,1.5-2,1.8-3.2c0.1-0.5,0.2-1.1,0.2-1.7c0-0.3,0-0.6-0.1-1c0,0,0.1-0.1,0.1-0.1c0.3-0.3,0.6-0.7,0.9-1.2   c0.3-0.6,0.6-1.2,0.8-1.9c0.1-0.4,0.1-0.8,0.1-1.3c0-0.9-0.2-1.7-0.5-2.4c-0.4-0.8-0.9-1.6-1.6-2.2c-1.1-1-2.5-1.6-4.1-1.6   c-2.5,0-4.6,1.4-5.6,3.5c-0.3,0.6-0.5,1.3-0.6,2c1.3,0.2,2.3,1.2,2.3,2.6c0,1.5-1.2,2.6-2.6,2.6c-1.1,0-2.1-0.7-2.5-1.7   c-0.1,0.3-0.2,0.5-0.3,0.8c-0.2,0.6-0.2,1.2-0.2,1.8c0,1.4,0.4,2.7,1.1,3.7c-0.4,0.4-0.8,0.5-1.2,0.5c-0.4-0.1-0.8-0.4-1.2-0.7   c-0.2-0.2-0.4-0.4-0.6-0.6c-0.4-0.4-0.7-0.9-0.9-1.4c-0.1-0.2-0.2-0.4-0.3-0.6c-0.4-0.8-0.5-1.8-0.7-2.3c-1,3.2-1.7,6.6-1.8,10.1   c0,0.5,0,1,0,1.6c0,0.5,0,0.9,0,1.4c1.6-0.5,3.4,0.9,4.1,3c0.7,2.2,0,4.3-1.6,4.8c-0.4,0.1-0.9,0.1-1.3,0c0,0.2,0.1,0.3,0.1,0.5   c0.9,3.2,2.2,6.3,3.8,9.1c0.1-0.2,0.1-0.5,0.3-0.6c0.6-0.4,1.5-0.2,2,0.6c0.5,0.7,0.5,1.7,0,2.1c0,0,0,0,0,0   c0.8,0.5,1.6,0.9,2.4,1.2c0.5,0.2,1,0.3,1.5,0.4c0.5,0.1,1,0.1,1.4,0c-0.5,0.3-0.8,0.9-0.8,1.5c0,1,0.8,1.8,1.8,1.8   c1,0,1.8-0.8,1.8-1.8c0-0.8-0.5-1.4-1.2-1.7c0.4-0.1,0.7-0.1,1.1-0.3c0.4,0.2,0.8,0.3,1.2,0.4c0.4,0.1,0.9,0.1,1.3,0.1   c2.5,0,4.6-1.4,5.7-3.4C35.9,68.7,36.1,68,36.2,67.2z M25.5,63.6c-0.9,0-1.7-0.7-1.7-1.7c0-0.9,0.7-1.7,1.7-1.7   c0.9,0,1.7,0.7,1.7,1.7C27.2,62.8,26.4,63.6,25.5,63.6z M31,57.8c-1.4,0-2.5-1.1-2.5-2.5c0-0.2,0.1-0.4,0.1-0.6   c-0.4,0.3-0.8,0.6-1.3,0.7c-1.9,0.6-4-0.4-4.5-2.1c-0.3-0.9-0.1-1.7,0.3-2.5c-0.3,0-0.6,0-0.9,0c-0.6-1.4-1.6-2.6-3-3.4l0,0   l2.2-1.4c0.5,0.2,1,0.4,1.5,0.6c0.5,0.1,1.1,0.2,1.7,0.2c0.7,0,1.3-0.1,2-0.3c-0.9,0.8-1.5,1.8-2,2.9c0.2-0.1,0.5-0.3,0.7-0.4   c1.9-0.6,4,0.4,4.5,2.1c0.2,0.7,0.1,1.4-0.2,2.1c0.4-0.2,0.8-0.4,1.3-0.4c1.4,0,2.5,1.1,2.5,2.5C33.4,56.7,32.3,57.8,31,57.8z"/><path fill="#000000" d="M41,77.6L41,77.6c0-1.7-1.4-3-3-3c-1.3,0-2.5,0.8-2.9,1.9c-0.1,0.4-0.2,0.8-0.1,1.2c0.2,1.2,1.8,1.4,3,2.5   c0.5,0.4,1,0.4,1.5,0.1C40.4,79.8,41,78.6,41,77.6z"/><path fill="#000000" d="M42.5,85.3c-0.4,0-0.8,0-1.2,0.1c-0.4,0.1-0.7,0.3-1,0.6c-0.3,0.2-0.6,0.5-0.8,0.9h0   c1.8,0.5,3.7,0.9,5.5,1.2v-0.7c-0.2-0.6-0.6-1.1-1-1.4C43.6,85.5,43.1,85.3,42.5,85.3z"/><path fill="#000000" d="M50.2,5.2h-2.1v0.1C24.2,6.4,5.2,26.1,5.2,50.2c0,24.1,19.1,43.8,42.9,44.9v0.1h2.1c24.8,0,45-20.2,45-45   C95.2,25.4,75,5.2,50.2,5.2z M9.3,50.2c0-20.8,15.7-38,35.8-40.5c1-0.1,1.9-0.2,2.9-0.2v2.7v11.8v10.5v28.9v10.3v0v14.7v2.7   c-1,0-2-0.1-2.9-0.2C25,88.2,9.3,71,9.3,50.2z"/></g>

        <g id="waning-crescent"><circle fill="#000000" cx="28.7" cy="23" r="2.1"/><path fill="#000000" d="M28.5,55.3c0-0.1,0-0.1,0-0.2c0-0.1,0-0.2,0-0.3c-0.4,0.3-0.8,0.5-1.3,0.6c-1.9,0.6-4-0.4-4.5-2.1   c-0.3-0.9-0.1-1.7,0.3-2.5c-0.3,0-0.6,0-0.9,0c-0.3-0.7-0.7-1.4-1.2-2c-0.5-0.6-1.1-1.1-1.8-1.5l0,0l2.2-1.4h0   c0.5,0.2,1,0.4,1.5,0.6c0.5,0.1,1.1,0.2,1.7,0.2c0.7,0,1.3-0.1,2-0.3c-0.6,0.6-1.2,1.2-1.6,1.9c-0.2,0.3-0.2,0.6-0.4,0.9   c0.2-0.1,0.5-0.3,0.7-0.4c1.1-0.3,2.2-0.1,3,0.4c0.1-6.7,1-13.3,2.8-19.6v0c-1.1-0.9-2.5-1.5-4-1.5c-2.5,0-4.6,1.4-5.6,3.5   c-0.3,0.6-0.5,1.3-0.6,2c1.3,0.2,2.3,1.2,2.3,2.6c0,1.5-1.2,2.6-2.6,2.6c-1.1,0-2.1-0.7-2.5-1.7c-0.1,0.3-0.2,0.5-0.3,0.8   c-0.2,0.6-0.2,1.2-0.2,1.8c0,1.4,0.4,2.7,1.1,3.7c-0.6,0.6-1.3,0.6-1.9,0.2c-0.4-0.3-0.8-0.7-1.2-1.1c-0.2-0.2-0.3-0.5-0.5-0.7   c-0.3-0.4-0.5-0.8-0.6-1.1c0-0.1-0.1-0.1-0.1-0.2c0-0.1-0.1-0.2-0.1-0.3c-0.3-0.7-0.5-1.6-0.6-2c-1,3.2-1.7,6.6-1.8,10.1   c0,0.5,0,1,0,1.6c0,0.5,0,0.9,0,1.4c1.6-0.5,3.4,0.9,4.1,3c0.7,2.2,0,4.3-1.6,4.8c-0.4,0.1-0.9,0.1-1.3,0c0,0.2,0.1,0.3,0.1,0.5   c0.9,3.2,2.2,6.3,3.8,9.1c0.1-0.2,0.1-0.5,0.3-0.6c0.6-0.4,1.5-0.2,2,0.6c0.5,0.7,0.5,1.7,0,2.1c0,0,0,0,0,0c1.3,0.8,2.6,1.4,4,1.6   c0.5,0.1,1,0.1,1.4,0c-0.5,0.3-0.8,0.9-0.8,1.5c0,1,0.8,1.8,1.8,1.8c1,0,1.8-0.8,1.8-1.8c0-0.8-0.5-1.4-1.2-1.7   c0.4-0.1,0.7-0.1,1.1-0.3c0.4,0.2,0.8,0.3,1.2,0.4c0.4,0.1,0.9,0.1,1.3,0.1c0.7,0,1.3-0.2,1.9-0.4c-1.7-5.4-2.8-11-3.2-16.8   C28.5,55.5,28.5,55.4,28.5,55.3z M25.5,63.6c-0.9,0-1.7-0.7-1.7-1.7c0-0.9,0.7-1.7,1.7-1.7s1.7,0.7,1.7,1.7   C27.1,62.8,26.4,63.6,25.5,63.6z"/><path fill="#000000" d="M50.1,5.2c-0.8,0-1.6,0.1-2.4,0.1l-0.8,0.1l-0.8,0.1l0,0c-0.4,0-0.8,0-1.2,0.1c-0.7,0.1-1.3,0.2-2,0.3   C21.6,9.2,5.1,27.8,5.1,50.2c0,22.4,16.5,41,38,44.4c0.6,0.1,1.2,0.2,1.8,0.3c0.4,0,0.9,0.1,1.3,0.1l0,0l0.8,0.1l0.8,0.1   c0.8,0.1,1.6,0.1,2.4,0.1c24.8,0,45-20.2,45-45S74.9,5.2,50.1,5.2z M9.3,50.2c0-18.9,12.9-34.7,30.3-39.4c1-0.3,2-0.5,3-0.7   c0.2,0,0.4-0.1,0.6-0.1c-0.6,1-1.3,2-1.8,3.1c-3.7,6.4-6.4,13.2-8,20.3c-0.3,1.5-0.7,3-0.9,4.6c0,0,0,0,0,0   c-0.4,2.1-0.6,4.3-0.8,6.5c-0.1,1.9-0.2,3.8-0.2,5.7c0,0.9,0.1,1.9,0.1,2.8c0.1,1.6,0.2,3.1,0.3,4.7c0.4,4.5,1.3,9,2.6,13.3v0   c0.4,1.5,0.9,3,1.5,4.5c0,0,0,0,0,0c0.5,1.4,1.1,2.9,1.7,4.3c0,0,0,0,0,0c0.9,2.1,1.9,4.2,3,6.2c0,0,0,0,0,0   c0.2,0.4,0.5,0.9,0.7,1.3c0.6,1.1,1.2,2.1,1.9,3.2c-0.2,0-0.4-0.1-0.6-0.1c-1-0.2-2-0.4-3-0.7C22.1,84.9,9.3,69,9.3,50.2z"/></g>
    </defs>

    <g transform="scale(2) translate(10 145)">
        <g>
            <g>
                <path d="M7.5,15C7.776,15,8,14.775,8,14.5v-6C8,8.224,7.776,8,7.5,8S7,8.224,7,8.5v6C7,14.775,7.224,15,7.5,15z M10.5,15    c0.275,0,0.5-0.225,0.5-0.5v-6C11,8.224,10.775,8,10.5,8S10,8.224,10,8.5v6C10,14.775,10.225,15,10.5,15z M14,2h-4V1    c0-0.552-0.447-1-1-1H6C5.447,0,5,0.448,5,1v1H1C0.447,2,0,2.448,0,3v3h1v10c0,1.105,0.896,2,2,2h9c1.104,0,2-0.895,2-2V6h1V3    C15,2.448,14.553,2,14,2z M6,1.5C6,1.224,6.224,1,6.5,1h2C8.775,1,9,1.224,9,1.5V2H6V1.5z M13,16c0,0.553-0.447,1-1,1H3    c-0.553,0-1-0.447-1-1V6h11V16z M14,5H1V3.5C1,3.224,1.224,3,1.5,3h12C13.775,3,14,3.224,14,3.5V5z M4.5,15    C4.776,15,5,14.775,5,14.5v-6C5,8.224,4.776,8,4.5,8S4,8.224,4,8.5v6C4,14.775,4.224,15,4.5,15z"/>
            </g>
        </g>
    </g>

    <g transform="scale(1.2) translate(34.167 399.725)">
        <use xlink:href="#{{ moon.phase }}"/>
    </g>

    <g font-family="DejaVu Sans">
        <text style="text-anchor:start;" font-size="35px" y="52.256058" x="20">Heute:</text>

        <text style="text-anchor:middle;" font-size="30px" y="120" x="466">Außen:</text>
        <text style="text-anchor:end;" font-size="100px" y="210" x="526">{{ outside }}</text>
        <text style="text-anchor:start;" font-size="60px" y="180" x="520">°C</text>

        <text style="text-anchor:start;" font-size="30px" y="120" x="25">{{ today.day }}</text>
        <text style="text-anchor:start;" font-size="80px" y="210" x="20">{{ today.date }}</text>

        <text style="text-anchor:middle;" font-size="32px" y="465.16922" x="102.92969">Mond:</text>
        <text style="text-anchor:middle;" font-size="20px" y="635.68347" x="102.958336">({{ moon.type }})</text>

        <text style="text-anchor:middle;" font-size="32px" y="465" x="300">Sonne:</text>
        <text style="text-anchor:middle;" font-size="20px" y="520" x="300">Aufgang</text>
        <text style="text-anchor:middle;" font-size="50px" y="570" x="300">{{ sunrise }}</text>
        <text style="text-anchor:middle;" font-size="20px" y="620" x="300">Untergang</text>
        <text style="text-anchor:middle;" font-size="50px" y="670" x="300">{{ sunset }}</text>

        <text style="text-anchor:middle;" font-size="32px" y="465" x="500">Fahrzeit:</text>
        <text style="text-anchor:middle;" font-size="20px" y="520" x="500">Pascalstr.</text>
        <text style="text-anchor:middle;" font-size="40px" y="570" x="500">{{ driving }} Min.</text>

        <text style="text-anchor: start" font-size="25px" y="322" x="60">{{ waste }}</text>

        <text style="text-anchor: end" font-size="10px" y="790" x="595">Stand: {{ today.time }} Uhr</text>
    </g>

    <line x1="20" y1="260" x2="600" y2="260" stroke-width="2" stroke="black"/>
    <line x1="20" y1="420" x2="600" y2="420" stroke-width="2" stroke="black"/>

    <path d="m199,447.35,0,321.5,3,0,0-321.5-3,0z"/>
    <path d="m398,447.35,0,321.5,3,0,0-321.5-3,0z"/>
</svg>
